<?xml version="1.0"?>
<svg xmlns="http://www.w3.org/2000/svg" xmlns:xlink="http://www.w3.org/1999/xlink" version="1.1" id="Layer_1" x="0px" y="0px" viewBox="0 0 496.016 496.016" style="enable-background:new 0 0 496.016 496.016;" xml:space="preserve" width="512px" height="512px" class=""><g><g>
	<g>
		<g>
			<path d="M320.24,309.32h-57.328c-31.296,0-31.296-12.96-31.296-21.536c0-5.12,0.224-13.968,0.512-23.792h80.288     c28.656,0,57.68-16.848,57.68-49.072c0-34.912-19.152-60.256-45.536-60.256h-91.136c-1.504-28.8-9.696-72.224-55.136-72.224     c-22.336,0-40.736,13.424-48.032,35.008c-6.656,19.6-6.288,41.056-5.952,59.984l0.192,22.4     c0.016,7.296,0.112,14.624,0.208,21.952l0.24,64.48c0,92.576,84.832,123.456,107.616,123.456c7.952,0,28.528,0.4,47.312,0.752     c16.048,0.304,30.816,0.592,35.616,0.592c52.288,0,56.352-35.856,56.352-46.88C371.84,326.488,345.088,309.32,320.24,309.32z      M315.52,379.096c-4.72,0-19.232-0.288-35.008-0.592c-19.04-0.352-39.872-0.752-47.904-0.752     c-9.44-0.192-75.648-19.376-75.648-91.456l-0.256-64.896c-0.096-7.232-0.192-14.464-0.208-21.6l-0.192-22.896     c-0.288-17.136-0.592-34.832,4.272-49.168c2.928-8.688,9.056-13.28,17.728-13.28c14.384,0,23.328,9.408,23.504,56.32     c0.032,8.816,7.184,15.952,16,15.952h106.768c6.512,0,13.536,10.8,13.536,28.256c0,16.88-25.424,17.072-25.68,17.072H216.64     c-8.656,0-15.728,6.848-16,15.488c-0.496,15.664-0.992,32.336-0.992,40.304c0,16.096,6.16,53.536,63.296,53.536h57.328     c5.904,0,19.6,2.224,19.6,22.864C339.872,369.8,339.872,379.096,315.52,379.096z" data-original="#000000" class="active-path" data-old_color="#F2F2F0" fill="#F2F2F2"/>
			<path d="M362.352,0.008H133.664C59.968,0.008,0,59.96,0,133.656V362.36c0,73.696,59.968,133.648,133.664,133.648h228.672     c73.696,0,133.664-59.952,133.68-133.648V133.656C496.016,59.96,436.048,0.008,362.352,0.008z M464.016,362.36     c0,56.048-45.616,101.648-101.664,101.648H133.664C77.6,464.008,32,418.408,32,362.36V133.656     C32,77.608,77.6,32.008,133.664,32.008h228.688c56.064,0,101.664,45.6,101.664,101.648V362.36z" data-original="#000000" class="active-path" data-old_color="#F2F2F0" fill="#F2F2F2"/>
		</g>
	</g>
</g></g> </svg>
