<?xml version="1.0" encoding="iso-8859-1"?>
<!-- Generator: Adobe Illustrator 19.0.0, SVG Export Plug-In . SVG Version: 6.00 Build 0)  -->
<svg xmlns="http://www.w3.org/2000/svg" xmlns:xlink="http://www.w3.org/1999/xlink" version="1.1" id="Capa_1" x="0px" y="0px" viewBox="0 0 455 455" style="enable-background:new 0 0 455 455;" xml:space="preserve" width="512" height="512">
<g>
	<path style="fill:#FFCC75;" d="M227.5,23.946c-4.142,0-7.5,3.358-7.5,7.5v40h15v-40C235,27.303,231.642,23.946,227.5,23.946z"/>
	<rect x="30" y="131.444" style="fill:#FFCC75;" width="395" height="50"/>
	<rect x="20" y="371.054" style="fill:#F2EBD9;" width="415" height="40"/>
	<rect x="50" y="211.444" style="fill:#FFCC75;" width="30" height="159.61"/>
	<rect x="131.25" y="211.444" style="fill:#FFCC75;" width="30" height="159.61"/>
	<rect x="212.5" y="211.444" style="fill:#FFCC75;" width="30" height="159.61"/>
	<rect x="293.75" y="211.444" style="fill:#FFCC75;" width="30" height="159.61"/>
	<rect x="375" y="211.444" style="fill:#FFCC75;" width="30" height="159.61"/>
	<polygon style="fill:#F2EBD9;" points="227.5,61.444 20,101.444 20,131.444 435,131.444 435,101.444  "/>
	<path style="fill:#F48205;" d="M87.5,218.945h-45c-4.142,0-7.5-3.358-7.5-7.5s3.358-7.5,7.5-7.5h45c4.142,0,7.5,3.358,7.5,7.5   S91.642,218.945,87.5,218.945z"/>
	<path style="fill:#F48205;" d="M412.5,218.945h-45c-4.142,0-7.5-3.358-7.5-7.5s3.358-7.5,7.5-7.5h45c4.142,0,7.5,3.358,7.5,7.5   S416.642,218.945,412.5,218.945z"/>
	<path style="fill:#F48205;" d="M331.25,218.945h-45c-4.142,0-7.5-3.358-7.5-7.5s3.358-7.5,7.5-7.5h45c4.142,0,7.5,3.358,7.5,7.5   S335.392,218.945,331.25,218.945z"/>
	<path style="fill:#F48205;" d="M250,218.945h-45c-4.142,0-7.5-3.358-7.5-7.5s3.358-7.5,7.5-7.5h45c4.142,0,7.5,3.358,7.5,7.5   S254.142,218.945,250,218.945z"/>
	<path style="fill:#F48205;" d="M168.75,218.945h-45c-4.142,0-7.5-3.358-7.5-7.5s3.358-7.5,7.5-7.5h45c4.142,0,7.5,3.358,7.5,7.5   S172.892,218.945,168.75,218.945z"/>
	<path style="fill:#F48205;" d="M435,63.946c-4.142,0-7.5,3.358-7.5,7.5v52.499h-400V71.446c0-4.142-3.358-7.5-7.5-7.5   s-7.5,3.358-7.5,7.5v67.499h430V71.446C442.5,67.303,439.142,63.946,435,63.946z"/>
	<rect y="401.054" style="fill:#FFCC75;" width="455" height="30"/>
</g>















</svg>
