<?xml version="1.0" encoding="utf-8"?>
<!-- Svg Vector Icons : http://www.onlinewebfonts.com/icon -->
<!DOCTYPE svg PUBLIC "-//W3C//DTD SVG 1.1//EN" "http://www.w3.org/Graphics/SVG/1.1/DTD/svg11.dtd">
<svg version="1.1" xmlns="http://www.w3.org/2000/svg" xmlns:xlink="http://www.w3.org/1999/xlink" x="0px" y="0px" viewBox="0 0 1000 1000" enable-background="new 0 0 1000 1000" xml:space="preserve">
<metadata> Svg Vector Icons : http://www.onlinewebfonts.com/icon </metadata>
<g><path d="M806.2,10c50.6,0,93.9,18,129.8,53.9C972,99.8,990,143.1,990,193.7v612.5c0,50.6-18,93.9-53.9,129.8C900.2,972,856.9,990,806.2,990h-120V610.4h127l19.1-148H686.3V368c0-23.8,5-41.7,15-53.6c10-11.9,29.5-17.8,58.4-17.9l77.8-0.7V163.8c-26.8-3.8-64.7-5.7-113.6-5.7c-57.8,0-104.1,17-138.8,51c-34.7,34-52,82.1-52,144.2v109.1H405.5v148h127.6V990H193.7c-50.6,0-93.9-18-129.9-53.9C28,900.2,10,856.9,10,806.3V193.8c0-50.6,18-93.9,53.9-129.9C99.8,28,143.1,10,193.7,10L806.2,10L806.2,10z"/></g>
</svg>