<?xml version="1.0" encoding="utf-8"?>
<!-- Generator: Adobe Illustrator 16.0.0, SVG Export Plug-In . SVG Version: 6.00 Build 0)  -->
<!DOCTYPE svg PUBLIC "-//W3C//DTD SVG 1.1//EN" "http://www.w3.org/Graphics/SVG/1.1/DTD/svg11.dtd">
<svg version="1.1" id="Capa_1" xmlns="http://www.w3.org/2000/svg" xmlns:xlink="http://www.w3.org/1999/xlink" x="0px" y="0px"
	 width="300px" height="300px" viewBox="147.64 0 300 300" enable-background="new 147.64 0 300 300" xml:space="preserve">
<g id="Layer_1_66_">
	<g>
		<g>
			<path fill="#FFFFFF" d="M336.702,165.612c4.268,0,7.888,2.097,11.008,6.365c3.095,4.218,4.667,9.435,4.667,15.6
				c0,6.19-1.548,11.406-4.667,15.625c-3.12,4.218-6.765,6.34-11.008,6.34c-4.518,0-8.412-2.097-11.507-6.34
				c-3.095-4.219-4.667-9.435-4.667-15.625c0-6.19,1.548-11.382,4.667-15.6C328.316,167.709,332.209,165.612,336.702,165.612
				 M391.865,108.479c12.03,13.029,18.096,28.828,18.096,47.374c0,12.031-1.423,22.838-4.144,32.473
				c-2.771,9.584-6.29,17.422-10.483,23.438c-4.268,6.04-9.435,11.332-15.649,15.85c-6.216,4.592-11.932,7.888-17.099,10.009
				c-5.191,2.122-11.131,3.744-17.871,4.892c-6.639,1.173-11.656,1.797-15.125,1.972c-3.37,0.15-7.039,0.225-10.983,0.225
				c-0.873,0-3.868,0.1-8.785,0.249c-4.817,0.2-8.961,0.275-12.181,0.275c-3.219,0-7.363-0.075-12.181-0.275
				c-4.892-0.149-7.887-0.249-8.786-0.249c-3.944,0-7.638-0.05-10.982-0.225c-3.495-0.174-8.512-0.799-15.126-1.972
				c-6.764-1.123-12.679-2.745-17.871-4.892c-5.167-2.097-10.882-5.417-17.073-10.009c-6.24-4.542-11.407-9.834-15.675-15.85
				c-4.193-6.015-7.713-13.853-10.483-23.438c-2.72-9.635-4.144-20.442-4.144-32.473c0-18.546,6.041-34.345,18.096-47.374
				c-1.322-0.649-1.397-7.139-0.199-19.519c1.073-12.38,3.694-23.787,7.961-34.195c15.026,1.597,33.522,10.083,55.661,25.384
				c7.488-1.947,17.722-2.945,30.776-2.945c13.703,0,23.937,0.999,30.8,2.945c10.084-6.814,19.743-12.38,28.954-16.624
				c9.335-4.193,16.073-6.665,20.317-7.313l6.34-1.448c4.293,10.408,6.914,21.839,7.987,34.195
				C393.262,101.34,393.187,107.83,391.865,108.479 M298.164,233.953c27.031,0,47.398-3.22,61.251-9.734
				c13.804-6.49,20.793-19.869,20.793-40.061c0-11.707-4.394-21.491-13.205-29.304c-4.517-4.243-9.833-6.814-15.924-7.812
				c-5.94-0.974-15.15-0.974-27.556,0c-12.355,0.998-20.816,1.448-25.359,1.448c-6.19,0-12.905-0.324-21.241-0.974
				c-8.336-0.624-14.876-1.023-19.544-1.223c-4.767-0.15-9.858,0.449-15.375,1.722c-5.566,1.323-10.084,3.569-13.729,6.815
				c-8.387,7.487-12.655,17.247-12.655,29.303c0,20.192,6.839,33.571,20.492,40.061c13.653,6.515,33.97,9.734,61.002,9.734
				 M259.077,165.612c4.243,0,7.887,2.097,10.982,6.365c3.095,4.218,4.667,9.435,4.667,15.6c0,6.19-1.547,11.406-4.667,15.625
				c-3.095,4.218-6.765,6.34-10.982,6.34c-4.542,0-8.411-2.097-11.531-6.34c-3.096-4.219-4.668-9.435-4.668-15.625
				c0-6.19,1.547-11.382,4.668-15.6C250.666,167.709,254.534,165.612,259.077,165.612"/>
		</g>
	</g>
</g>
</svg>
