<?xml version="1.0" encoding="utf-8"?>
<!-- Generator: Adobe Illustrator 16.0.0, SVG Export Plug-In . SVG Version: 6.00 Build 0)  -->
<!DOCTYPE svg PUBLIC "-//W3C//DTD SVG 1.1//EN" "http://www.w3.org/Graphics/SVG/1.1/DTD/svg11.dtd">
<svg version="1.1" id="Capa_1" xmlns="http://www.w3.org/2000/svg" xmlns:xlink="http://www.w3.org/1999/xlink" x="0px" y="0px"
	 width="300px" height="300px" viewBox="65.058 0 300 300" enable-background="new 65.058 0 300 300" xml:space="preserve">
<g>
	<path id="LinkedIn" fill="#FFFFFF" d="M327.784,174.365v83.35h-48.321v-77.768c0-19.536-6.989-32.868-24.479-32.868
		c-13.353,0-21.299,8.984-24.794,17.677c-1.275,3.107-1.604,7.432-1.604,11.781v81.178h-48.337c0,0,0.651-131.713,0-145.359h48.333
		v20.604c-0.098,0.154-0.225,0.32-0.317,0.469h0.317v-0.469c6.421-9.891,17.889-24.02,43.56-24.02
		C303.943,108.939,327.784,129.715,327.784,174.365z M129.686,42.284c-16.537,0-27.353,10.847-27.353,25.109
		c0,13.953,10.503,25.128,26.711,25.128h0.323c16.857,0,27.34-11.173,27.34-25.128C156.389,53.131,146.223,42.284,129.686,42.284z
		 M105.204,257.715h48.319V112.355h-48.319V257.715z"/>
</g>
</svg>
